# xmcd
#
# Track frame offsets: 
#        150
#        15387
#        29455
#        42480
#        55517
#        69990
#        84937
#        96750
#        108757
#        123837
#
# Disc length: 1822 seconds
#
# Revision: 1
# Processed by: cddbd v1.4PL0 Copyright (c) Steve Scherf et al.
# Submitted via: ExactAudioCopy v0.90b3
#
DISCID=6c071c0a
DTITLE=George Jones - Shine On
DYEAR=1983
DGENRE=Country
TTITLE0=Shine On (Shine All Your Sweet Love On Me)
TTITLE1=She Hung The Moon
TTITLE2=I'd Rather Have What We Had
TTITLE3=Tennessee Whiskey
TTITLE4=Almost Persuaded
TTITLE5=I Always Get Lucky With You
TTITLE6=Mem'ryville
TTITLE7=I Should've Called
TTITLE8=The Show's Almost Over
TTITLE9=Ol' George Stopped Drinkin' Today
EXTD=
EXTT0=
EXTT1=
EXTT2=
EXTT3=
EXTT4=
EXTT5=
EXTT6=
EXTT7=
EXTT8=
EXTT9=
PLAYORDER=
